<?xml version="1.0" encoding="utf-8"?>
<!-- Generator: Adobe Illustrator 15.0.0, SVG Export Plug-In . SVG Version: 6.00 Build 0)  -->
<!DOCTYPE svg PUBLIC "-//W3C//DTD SVG 1.1//EN" "http://www.w3.org/Graphics/SVG/1.1/DTD/svg11.dtd">
<svg version="1.1" id="图层_1" xmlns="http://www.w3.org/2000/svg" xmlns:xlink="http://www.w3.org/1999/xlink" x="0px" y="0px"
	 width="1024px" height="1024px" viewBox="-409.75 -424 1024 1024" enable-background="new -409.75 -424 1024 1024"
	 xml:space="preserve">
<title>Group 10</title>
<desc>Created with Sketch.</desc>
<g>
	<path fill="#48BDA9" d="M35.55-355v491.724L-93.323,219.72l-92.682-68.558c8.067-15.978,12.638-34.005,12.638-53.102
		c0-65.229-53.066-118.295-118.3-118.295c-65.229,0-118.3,53.066-118.3,118.295c0,65.233,53.071,118.306,118.3,118.306
		c26.085,0,50.208-8.504,69.79-22.862l78.773,58.278l-73.198,47.148c-20.479-16.968-46.75-27.188-75.365-27.188
		c-65.229,0-118.3,53.071-118.3,118.306c0,65.224,53.071,118.295,118.3,118.295c65.234,0,118.3-53.071,118.3-118.295
		c0-16.586-3.443-32.376-9.627-46.707l87.494-56.347L35.55,383.927V531h578.917v-886H35.55z M-354.591,98.061
		c0-34.691,28.228-62.919,62.924-62.919s62.929,28.228,62.929,62.919c0,34.701-28.233,62.93-62.929,62.93
		S-354.591,132.762-354.591,98.061z M-291.667,452.967c-34.696,0-62.924-28.228-62.924-62.919c0-34.702,28.228-62.929,62.924-62.929
		s62.929,28.227,62.929,62.929C-228.739,424.739-256.972,452.967-291.667,452.967z M-45.725,254.932l81.275-52.346v112.47
		L-45.725,254.932z M90.921,475.624v-50.729l23.814,17.615l32.927-44.519l-56.741-41.979v-49.031h50.561v-55.376H90.921v-551.235
		h468.169v551.235h-70.255v55.376h70.255v168.642H90.921z"/>
	<polygon fill="#48BDA9" points="265.673,118.206 424.711,-173.775 385.096,-173.775 226.439,118.206 	"/>
	<path fill="#48BDA9" d="M225.871-30.023c23.039,0,41.185-6.527,54.455-19.577c13.26-13.05,19.891-30.513,19.891-52.395
		c0-21.749-6.631-39.154-19.891-52.204c-13.271-13.049-31.416-19.577-54.455-19.577c-15.644,0-29.188,3.08-40.645,9.229
		c-11.456,6.155-19.97,14.948-25.54,26.384c-5.57,11.437-8.357,23.49-8.357,36.167c0,12.805,2.787,24.922,8.357,36.358
		c5.57,11.437,14.084,20.229,25.54,26.384C196.683-33.103,210.228-30.023,225.871-30.023z M211.601-135.181
		c3.256-4.472,8.014-6.708,14.271-6.708c6.259,0,10.956,2.236,14.084,6.708c5.012,7.086,7.503,18.272,7.503,33.563
		c0,15.408-2.491,26.594-7.503,33.558c-3.128,4.6-7.825,6.895-14.084,6.895c-6.257,0-11.015-2.295-14.271-6.895
		c-5.003-6.964-7.514-18.15-7.514-33.558C204.087-117.031,206.598-128.222,211.601-135.181z"/>
	<path fill="#48BDA9" d="M478.783-6.439c-13.271-13.114-31.484-19.67-54.642-19.67c-15.517,0-29.041,3.108-40.556,9.322
		c-11.515,6.218-20.028,15.011-25.531,26.384c-5.502,11.373-8.258,23.461-8.258,36.265c0,12.799,2.756,24.888,8.258,36.266
		c5.503,11.373,14.017,20.169,25.531,26.379c11.515,6.218,25.039,9.327,40.556,9.327c23.157,0,41.37-6.562,54.642-19.676
		c13.26-13.113,19.9-30.547,19.9-52.296C498.684,24.107,492.043,6.674,478.783-6.439z M438.412,79.793
		c-3.256,4.478-8.013,6.714-14.271,6.714c-6.257,0-10.945-2.236-14.085-6.714c-5.002-6.958-7.503-18.145-7.503-33.558
		c0-15.414,2.501-26.6,7.503-33.563c3.14-4.595,7.828-6.9,14.085-6.9c6.258,0,11.015,2.241,14.271,6.714
		c5.003,7.086,7.514,18.336,7.514,33.75C445.926,61.648,443.415,72.834,438.412,79.793z"/>
	<rect x="347.874" y="251.606" fill="#48BDA9" width="100.68" height="55.376"/>
	<rect x="181.745" y="251.606" fill="#48BDA9" width="100.688" height="55.376"/>
</g>
</svg>
