<?xml version="1.0" encoding="utf-8"?>
<!-- Generator: Adobe Illustrator 22.0.0, SVG Export Plug-In . SVG Version: 6.00 Build 0)  -->
<svg version="1.1" id="图层_1" xmlns="http://www.w3.org/2000/svg" xmlns:xlink="http://www.w3.org/1999/xlink" x="0px" y="0px"
	 viewBox="0 0 1024 1024" style="enable-background:new 0 0 1024 1024;" xml:space="preserve">
<style type="text/css">
	.st0{fill:#77CCF0;}
</style>
<title>推荐</title>
<desc>Created with Sketch.</desc>
<path id="Fill-1" class="st0" d="M482.7,439.4c0,2.5-0.2,5,0,7.4c-2.3,84.3-70.7,152.1-152.1,161.4l-0.6,394.2h7.9
	c0.5,0,132,0,394.6,0c15.1,0,23.5-3.8,37-12.6c12.9-8.4,22.7-19.8,29-32.8c1.8-2.6,62.9-270.1,64.5-286c1.2-16.9-2.6-34.4-12.1-50
	c-15-24.5-36.7-34.3-63-35.4c-1.3-0.2-159.1-0.9-159.1-0.9c10.5-30.3,13.3-66.6,13.3-100.6c0-21.6-2.4-43.1-7-64.2
	c-8.6-36.2-40.5-63.2-78.6-63.2C512.3,356.9,482.7,394.3,482.7,439.4z"/>
<path id="Rectangle" class="st0" d="M105.5,609.5h84.2v393H77.4V637.6C77.4,622,90,609.5,105.5,609.5z"/>
<path id="Fill-3" d="M210.2,563.9v400.8c0,32.2-24.9,58.9-56.3,58.9H56.6c-31.5,0-56.4-26.7-56.4-58.9V563.8
	c0-32.2,24.9-58.9,56.4-58.9h118.3C198.5,509.1,210.2,528.8,210.2,563.9z M56.6,547.1c-7.5,0-14.3,7.2-14.3,16.8v400.8
	c0,9.6,6.7,16.8,14.3,16.8h97.3c7.5,0,14.2-7.2,14.2-16.8V563.9c0-9.6-6.7-16.8-14.2-16.8h-21.1H56.6z"/>
<path id="Fill-1_1_" d="M794.4,1005.4c-20.4,13.3-33.6,18.1-54.4,18.1c-273.8,0-456.1,0-456.9,0h-30.3l0.8-502.6l18.6-2.2
	c86-10,155.1-82.8,157.5-166.8c-0.2-3-0.2-4.6-0.1-8.1c0-68.1,44.5-120.3,106.7-120.3c53.4,0,99.2,37.9,111.6,90.8
	c5.7,26.2,8.6,53,8.6,79.9c0,36.5-2.7,68.8-8.9,97.1c22.9,0.1,44.5,0.2,64.6,0.3c12.9,0.1,12.9,0.1,25.5,0.1
	c65.8,0.3,67.4,0.3,67.4,0.5c39.3,1.6,69.9,18.2,90.1,51.8c12.9,21.5,18.7,46.3,16.9,71.6c-1.9,19.2-67,310.6-77.1,342.7
	C826.3,977.4,812.3,993.6,794.4,1005.4z M797.6,938.9c-0.1,0.2-0.1,0.6-0.2,1.1c0.1-0.2,0.1-0.5,0.2-0.8L797.6,938.9z M799.8,929.8
	c2.1-8.7,5-21.1,8.5-36.4c7-30.3,16.1-70.4,25.1-110.8c20.5-91.5,36.2-164.2,36.8-170.6c1.2-16.2-2.5-32.4-11-46.3
	c-12.6-20.9-30.1-30.4-58.1-31.7c1.4,0.2-16.1,0.1-17.1,0.1c-11.3-0.1-27.1-0.2-46.5-0.3c-12.6-0.1-12.6-0.1-25.5-0.1
	c-20.1-0.1-41.7-0.2-63.3-0.3c-23-0.1-23-0.1-28.8-0.1l-29.2-0.1l9.4-27.7c10-29.4,14.3-66.5,14.3-111.3c0-23.8-2.5-47.6-7.5-70.6
	c-7.9-33.9-37.1-58-70.6-58c-37.3,0-64.6,32-64.6,75.9c0,2,0,2-0.1,3.5c-0.1,2.1-0.1,2.8,0,3.3c0,0,0,0,0.1,2.4
	C469,452,393.4,537.6,295.7,557.6L295,981.4c38.6,0,170.1,0,445,0c11.6,0,17.3-2.1,31.3-11.2c11.4-7.5,20.3-17.8,26.3-30.1l1.5-2.5
	c-1.8,2.7-1-0.8-1.5,1.3C798.1,936.9,798.9,933.8,799.8,929.8z"/>
<path id="Fill-6" class="st0" d="M1003.1,182.3c-1.3-3.9-4.7-7-8.8-7.9l-85.8-20l-46.3-72.5c-2.2-3.5-6.2-5.7-10.5-5.7
	c-4.3,0-8.3,2.2-10.6,5.7l-46.3,72.5l-85.8,20c-4.2,1-7.5,4-8.9,7.9c-1.3,3.9-0.4,8.3,2.4,11.4l57.2,64.8l-6.7,84.9
	c-0.3,4.1,1.6,8.1,5.1,10.6c3.5,2.4,8,3,12,1.4l81.6-32.4l81.6,32.4c4,1.6,8.5,1,12-1.4c3.5-2.4,5.4-6.4,5-10.6l-6.7-84.9l57.2-64.8
	C1003.5,190.5,1004.4,186.2,1003.1,182.3"/>
<path id="Fill-6-Copy" d="M1016,175.4l-62.7,71l7.4,92.8c1,12.4-4.7,24.4-15,31.6c-10,7-22.9,8.5-34.2,4L821.4,339l-90.1,35.8
	c-11.3,4.5-24.2,3-34.2-4c-10.3-7.2-16-19.1-15-31.6l7.4-92.8l-62.7-71c-8.3-9.4-11-22.4-7-34.4c3.9-11.7,13.7-20.4,25.8-23.3
	l94.5-22.1L791,16c6.6-10.3,18.1-16.5,30.4-16.5c12.3,0,23.8,6.2,30.4,16.5l50.9,79.6l94.5,22.1c12,2.8,21.8,11.6,25.8,23.3
	C1026.9,152.9,1024.2,166,1016,175.4z M1003,147.7l-20,6.7C983,154.5,989.7,152.2,1003,147.7z M976.7,156.2l-100.3-23.4l-4.6-7.2
	l-50.4-78.9l-55,86.1l-8.3,1.9l-92,21.5l66.8,75.7l-0.7,8.9l-7.2,91.2l96.5-38.3l7.8,3.1l88.7,35.2l-7.9-100.1l5.9-6.7L976.7,156.2z
	"/>
</svg>
