<?xml version="1.0" encoding="utf-8"?>
<!-- Generator: Adobe Illustrator 15.0.0, SVG Export Plug-In . SVG Version: 6.00 Build 0)  -->
<!DOCTYPE svg PUBLIC "-//W3C//DTD SVG 1.1//EN" "http://www.w3.org/Graphics/SVG/1.1/DTD/svg11.dtd">
<svg version="1.1" id="图层_1" xmlns="http://www.w3.org/2000/svg" xmlns:xlink="http://www.w3.org/1999/xlink" x="0px" y="0px"
	 width="1024px" height="1024px" viewBox="-474 -480 1024 1024" enable-background="new -474 -480 1024 1024" xml:space="preserve">
<title>住宅</title>
<desc>Created with Sketch.</desc>
<g id="Web">
	<g id="关于我们" transform="translate(-363.000000, -875.000000)">
		<g id="Group-7" transform="translate(220.000000, 828.000000)">
			<g id="Group-9">
				<g id="用户" transform="translate(141.000000, 39.000000)">
					<g id="Group-2-Copy" transform="translate(44.000000, 42.000000)">
						<path id="Combined-Shape" fill="#77CCF0" d="M132.206,243.143c4.097-106.771,78.442-195.083,177.048-217.904
							c98.605,22.821,172.952,111.134,177.048,217.904H132.206z"/>
						<path id="Combined-Shape-Copy-2" d="M72.756,222.715C86.48,122.248,169.246,45.667,268.396,45.667
							s181.915,76.581,195.641,177.048H72.756z M507.515,263.57l-0.798-21.198c-5-132.281-109.95-237.562-238.32-237.562
							c-128.371,0-233.319,105.281-238.319,237.562l-0.798,21.198H507.515z"/>
					</g>
					<g id="Group" transform="translate(18.000000, 10.000000)">
						<path id="Combined-Shape_1_" fill="#77CCF0" d="M-114.035-24.981c-49.223-31.447-81.854-86.562-81.854-149.304
							c0-97.78,79.267-177.047,177.047-177.047c4.535,0,9.031,0.172,13.479,0.505c49.217,31.447,81.854,86.562,81.854,149.304
							c0,97.78-79.267,177.048-177.047,177.048C-105.091-24.476-109.586-24.649-114.035-24.981z"/>
						<path id="Oval-3" d="M-100.556-4.048c-109.066,0-197.476-88.41-197.476-197.476c0-109.065,88.41-197.476,197.476-197.476
							C8.51-399,96.92-310.589,96.92-201.524C96.92-92.458,8.51-4.048-100.556-4.048z M-100.556-44.905
							c86.496,0,156.619-70.124,156.619-156.619c0-86.495-70.124-156.619-156.619-156.619c-86.496,0-156.62,70.124-156.62,156.619
							C-257.175-115.028-187.052-44.905-100.556-44.905z"/>
					</g>
					<g id="Group-Copy" transform="translate(54.000000, 20.000000)">
						<path id="Combined-Shape_2_" fill="#77CCF0" d="M280.262-34.769c-29.526-18.347-49.104-50.5-49.104-87.094
							c0-57.043,47.561-103.28,106.226-103.28c2.728,0,5.413,0.1,8.1,0.293c29.526,18.347,49.104,50.5,49.104,87.094
							c0,57.043-47.561,103.28-106.227,103.28C285.634-34.476,282.948-34.576,280.262-34.769z"/>
						<path id="Oval-3_1_" d="M285.634-14.048c-71.445,0-129.38-57.927-129.38-129.381c0-71.453,57.935-129.381,129.38-129.381
							c71.448,0,129.382,57.928,129.382,129.381C415.016-71.975,357.082-14.048,285.634-14.048z M285.634-54.905
							c48.892,0,88.524-39.634,88.524-88.524s-39.633-88.523-88.524-88.523c-48.889,0-88.523,39.633-88.523,88.523
							S236.745-54.905,285.634-54.905z"/>
					</g>
					<g id="Group-2" transform="translate(4.000000, 44.000000)">
						<path id="Combined-Shape_3_" fill="#77CCF0" d="M-290.841,404.572C-284.191,235.518-163.755,95.695-3.997,59.56
							c159.764,36.136,280.195,175.958,286.845,345.013H-290.841z"/>
						<path id="Combined-Shape-Copy-2_1_" d="M-85.711,70.904c180.06,0,329.019,136.883,346.667,313.238h-693.335
							C-414.716,207.787-265.778,70.904-85.711,70.904z M304.088,425l-0.825-21.226C295.07,195.392,123.476,30.048-85.711,30.048
							c-209.193,0-380.775,165.344-388.974,373.727L-475.517,425H304.088z"/>
					</g>
				</g>
			</g>
		</g>
	</g>
</g>
</svg>
